<mxfile host="app.diagrams.net" modified="2022-12-12T11:28:33.090Z" agent="5.0 (Windows NT 10.0; Win64; x64) AppleWebKit/537.36 (KHTML, like Gecko) Chrome/108.0.0.0 Safari/537.36" etag="nkg8z8Czxa2HRmqeBITB" version="20.6.2" type="github">
  <diagram id="C5RBs43oDa-KdzZeNtuy" name="Page-1">
    <mxGraphModel dx="1422" dy="737" grid="1" gridSize="10" guides="1" tooltips="1" connect="1" arrows="1" fold="1" page="1" pageScale="1" pageWidth="827" pageHeight="1169" background="#F1FAEE" math="0" shadow="1">
      <root>
        <mxCell id="WIyWlLk6GJQsqaUBKTNV-0" />
        <mxCell id="WIyWlLk6GJQsqaUBKTNV-1" parent="WIyWlLk6GJQsqaUBKTNV-0" />
        <mxCell id="h4uFp4v9oARdykIwXIdX-3" style="edgeStyle=orthogonalEdgeStyle;rounded=0;orthogonalLoop=1;jettySize=auto;html=1;exitX=0.5;exitY=1;exitDx=0;exitDy=0;entryX=0.5;entryY=0;entryDx=0;entryDy=0;labelBackgroundColor=#F1FAEE;strokeColor=#457B9D;fontColor=#1D3557;" edge="1" parent="WIyWlLk6GJQsqaUBKTNV-1" source="h4uFp4v9oARdykIwXIdX-0" target="h4uFp4v9oARdykIwXIdX-1">
          <mxGeometry relative="1" as="geometry" />
        </mxCell>
        <mxCell id="h4uFp4v9oARdykIwXIdX-0" value="начало" style="ellipse;whiteSpace=wrap;html=1;rounded=0;fillColor=#A8DADC;strokeColor=#457B9D;fontColor=#1D3557;" vertex="1" parent="WIyWlLk6GJQsqaUBKTNV-1">
          <mxGeometry x="354" y="40" width="120" height="80" as="geometry" />
        </mxCell>
        <mxCell id="h4uFp4v9oARdykIwXIdX-5" value="" style="edgeStyle=orthogonalEdgeStyle;rounded=0;orthogonalLoop=1;jettySize=auto;html=1;labelBackgroundColor=#F1FAEE;strokeColor=#457B9D;fontColor=#1D3557;" edge="1" parent="WIyWlLk6GJQsqaUBKTNV-1" source="h4uFp4v9oARdykIwXIdX-1" target="h4uFp4v9oARdykIwXIdX-4">
          <mxGeometry relative="1" as="geometry" />
        </mxCell>
        <mxCell id="h4uFp4v9oARdykIwXIdX-1" value="вывод &quot;Укажите логин&quot;" style="shape=parallelogram;perimeter=parallelogramPerimeter;whiteSpace=wrap;html=1;fixedSize=1;rounded=0;fillColor=#A8DADC;strokeColor=#457B9D;fontColor=#1D3557;" vertex="1" parent="WIyWlLk6GJQsqaUBKTNV-1">
          <mxGeometry x="354" y="160" width="120" height="60" as="geometry" />
        </mxCell>
        <mxCell id="h4uFp4v9oARdykIwXIdX-7" value="" style="edgeStyle=orthogonalEdgeStyle;rounded=0;orthogonalLoop=1;jettySize=auto;html=1;labelBackgroundColor=#F1FAEE;strokeColor=#457B9D;fontColor=#1D3557;" edge="1" parent="WIyWlLk6GJQsqaUBKTNV-1" source="h4uFp4v9oARdykIwXIdX-4" target="h4uFp4v9oARdykIwXIdX-6">
          <mxGeometry relative="1" as="geometry" />
        </mxCell>
        <mxCell id="h4uFp4v9oARdykIwXIdX-4" value="считать User.Login" style="rounded=0;whiteSpace=wrap;html=1;fillColor=#A8DADC;strokeColor=#457B9D;fontColor=#1D3557;" vertex="1" parent="WIyWlLk6GJQsqaUBKTNV-1">
          <mxGeometry x="354" y="260" width="120" height="60" as="geometry" />
        </mxCell>
        <mxCell id="h4uFp4v9oARdykIwXIdX-6" value="User.IsPremium == true" style="rhombus;whiteSpace=wrap;html=1;rounded=0;fillColor=#A8DADC;strokeColor=#457B9D;fontColor=#1D3557;" vertex="1" parent="WIyWlLk6GJQsqaUBKTNV-1">
          <mxGeometry x="329" y="350" width="170" height="80" as="geometry" />
        </mxCell>
        <mxCell id="h4uFp4v9oARdykIwXIdX-15" value="" style="edgeStyle=orthogonalEdgeStyle;rounded=0;orthogonalLoop=1;jettySize=auto;html=1;labelBackgroundColor=#F1FAEE;strokeColor=#457B9D;fontColor=#1D3557;" edge="1" parent="WIyWlLk6GJQsqaUBKTNV-1" source="h4uFp4v9oARdykIwXIdX-10" target="h4uFp4v9oARdykIwXIdX-14">
          <mxGeometry relative="1" as="geometry" />
        </mxCell>
        <mxCell id="h4uFp4v9oARdykIwXIdX-10" value="вывод &quot;Посетите наш новый сайт с бесплатными играми free.games.for.a.fool.com&quot;" style="shape=parallelogram;perimeter=parallelogramPerimeter;whiteSpace=wrap;html=1;fixedSize=1;rounded=0;fillColor=#A8DADC;strokeColor=#457B9D;fontColor=#1D3557;" vertex="1" parent="WIyWlLk6GJQsqaUBKTNV-1">
          <mxGeometry x="20" y="430" width="350" height="60" as="geometry" />
        </mxCell>
        <mxCell id="h4uFp4v9oARdykIwXIdX-11" value="" style="endArrow=classic;html=1;rounded=0;exitX=0;exitY=0.5;exitDx=0;exitDy=0;entryX=0.5;entryY=0;entryDx=0;entryDy=0;labelBackgroundColor=#F1FAEE;strokeColor=#457B9D;fontColor=#1D3557;" edge="1" parent="WIyWlLk6GJQsqaUBKTNV-1" source="h4uFp4v9oARdykIwXIdX-6" target="h4uFp4v9oARdykIwXIdX-10">
          <mxGeometry width="50" height="50" relative="1" as="geometry">
            <mxPoint x="220" y="410" as="sourcePoint" />
            <mxPoint x="270" y="360" as="targetPoint" />
            <Array as="points">
              <mxPoint x="195" y="390" />
            </Array>
          </mxGeometry>
        </mxCell>
        <mxCell id="h4uFp4v9oARdykIwXIdX-14" value="Thread.Sleep(1000)" style="whiteSpace=wrap;html=1;rounded=0;fillColor=#A8DADC;strokeColor=#457B9D;fontColor=#1D3557;" vertex="1" parent="WIyWlLk6GJQsqaUBKTNV-1">
          <mxGeometry x="135" y="525" width="120" height="45" as="geometry" />
        </mxCell>
        <mxCell id="h4uFp4v9oARdykIwXIdX-19" value="" style="edgeStyle=orthogonalEdgeStyle;rounded=0;orthogonalLoop=1;jettySize=auto;html=1;labelBackgroundColor=#F1FAEE;strokeColor=#457B9D;fontColor=#1D3557;" edge="1" parent="WIyWlLk6GJQsqaUBKTNV-1" source="h4uFp4v9oARdykIwXIdX-16" target="h4uFp4v9oARdykIwXIdX-18">
          <mxGeometry relative="1" as="geometry" />
        </mxCell>
        <mxCell id="h4uFp4v9oARdykIwXIdX-16" value="вывод &quot;Купите подписку на МыКомбо и слушайте музыку везде и всегда.&quot;" style="shape=parallelogram;perimeter=parallelogramPerimeter;whiteSpace=wrap;html=1;fixedSize=1;rounded=0;fillColor=#A8DADC;strokeColor=#457B9D;fontColor=#1D3557;" vertex="1" parent="WIyWlLk6GJQsqaUBKTNV-1">
          <mxGeometry x="17.5" y="600" width="355" height="60" as="geometry" />
        </mxCell>
        <mxCell id="h4uFp4v9oARdykIwXIdX-17" value="" style="endArrow=classic;html=1;rounded=0;exitX=0.5;exitY=1;exitDx=0;exitDy=0;entryX=0.5;entryY=0;entryDx=0;entryDy=0;labelBackgroundColor=#F1FAEE;strokeColor=#457B9D;fontColor=#1D3557;" edge="1" parent="WIyWlLk6GJQsqaUBKTNV-1" source="h4uFp4v9oARdykIwXIdX-14" target="h4uFp4v9oARdykIwXIdX-16">
          <mxGeometry width="50" height="50" relative="1" as="geometry">
            <mxPoint x="380" y="610" as="sourcePoint" />
            <mxPoint x="430" y="560" as="targetPoint" />
          </mxGeometry>
        </mxCell>
        <mxCell id="h4uFp4v9oARdykIwXIdX-22" value="" style="edgeStyle=orthogonalEdgeStyle;rounded=0;orthogonalLoop=1;jettySize=auto;html=1;strokeColor=#457B9D;fontColor=#1D3557;fillColor=#A8DADC;" edge="1" parent="WIyWlLk6GJQsqaUBKTNV-1" source="h4uFp4v9oARdykIwXIdX-18" target="h4uFp4v9oARdykIwXIdX-20">
          <mxGeometry relative="1" as="geometry" />
        </mxCell>
        <mxCell id="h4uFp4v9oARdykIwXIdX-18" value="Thread.Sleep(2000)" style="whiteSpace=wrap;html=1;rounded=0;fillColor=#A8DADC;strokeColor=#457B9D;fontColor=#1D3557;" vertex="1" parent="WIyWlLk6GJQsqaUBKTNV-1">
          <mxGeometry x="135" y="690" width="120" height="40" as="geometry" />
        </mxCell>
        <mxCell id="h4uFp4v9oARdykIwXIdX-24" value="" style="edgeStyle=orthogonalEdgeStyle;rounded=0;orthogonalLoop=1;jettySize=auto;html=1;strokeColor=#457B9D;fontColor=#1D3557;fillColor=#A8DADC;" edge="1" parent="WIyWlLk6GJQsqaUBKTNV-1" source="h4uFp4v9oARdykIwXIdX-20" target="h4uFp4v9oARdykIwXIdX-23">
          <mxGeometry relative="1" as="geometry" />
        </mxCell>
        <mxCell id="h4uFp4v9oARdykIwXIdX-20" value="вывод &quot;Оформите премиум-подписку на наш сервис, чтобы не видеть рекламу.&quot;" style="shape=parallelogram;perimeter=parallelogramPerimeter;whiteSpace=wrap;html=1;fixedSize=1;strokeColor=#457B9D;fontColor=#1D3557;fillColor=#A8DADC;" vertex="1" parent="WIyWlLk6GJQsqaUBKTNV-1">
          <mxGeometry x="18.75" y="770" width="352.5" height="70" as="geometry" />
        </mxCell>
        <mxCell id="h4uFp4v9oARdykIwXIdX-26" value="" style="edgeStyle=orthogonalEdgeStyle;rounded=0;orthogonalLoop=1;jettySize=auto;html=1;strokeColor=#457B9D;fontColor=#1D3557;fillColor=#A8DADC;" edge="1" parent="WIyWlLk6GJQsqaUBKTNV-1" source="h4uFp4v9oARdykIwXIdX-23" target="h4uFp4v9oARdykIwXIdX-25">
          <mxGeometry relative="1" as="geometry" />
        </mxCell>
        <mxCell id="h4uFp4v9oARdykIwXIdX-23" value="Thread.Sleep(3000)" style="whiteSpace=wrap;html=1;fillColor=#A8DADC;strokeColor=#457B9D;fontColor=#1D3557;" vertex="1" parent="WIyWlLk6GJQsqaUBKTNV-1">
          <mxGeometry x="135" y="880" width="120" height="35" as="geometry" />
        </mxCell>
        <mxCell id="h4uFp4v9oARdykIwXIdX-28" value="" style="edgeStyle=orthogonalEdgeStyle;rounded=0;orthogonalLoop=1;jettySize=auto;html=1;strokeColor=#457B9D;fontColor=#1D3557;fillColor=#A8DADC;" edge="1" parent="WIyWlLk6GJQsqaUBKTNV-1" source="h4uFp4v9oARdykIwXIdX-25" target="h4uFp4v9oARdykIwXIdX-27">
          <mxGeometry relative="1" as="geometry" />
        </mxCell>
        <mxCell id="h4uFp4v9oARdykIwXIdX-25" value="вывод &quot;Приветствую &quot; + User.Name" style="shape=parallelogram;perimeter=parallelogramPerimeter;whiteSpace=wrap;html=1;fixedSize=1;fillColor=#A8DADC;strokeColor=#457B9D;fontColor=#1D3557;" vertex="1" parent="WIyWlLk6GJQsqaUBKTNV-1">
          <mxGeometry x="570" y="867.5" width="190" height="60" as="geometry" />
        </mxCell>
        <mxCell id="h4uFp4v9oARdykIwXIdX-27" value="конец" style="ellipse;whiteSpace=wrap;html=1;fillColor=#A8DADC;strokeColor=#457B9D;fontColor=#1D3557;" vertex="1" parent="WIyWlLk6GJQsqaUBKTNV-1">
          <mxGeometry x="605" y="1007.5" width="120" height="60" as="geometry" />
        </mxCell>
        <mxCell id="h4uFp4v9oARdykIwXIdX-29" value="" style="endArrow=classic;html=1;rounded=0;strokeColor=#457B9D;fontColor=#1D3557;fillColor=#A8DADC;entryX=0.563;entryY=0.025;entryDx=0;entryDy=0;entryPerimeter=0;" edge="1" parent="WIyWlLk6GJQsqaUBKTNV-1" target="h4uFp4v9oARdykIwXIdX-25">
          <mxGeometry width="50" height="50" relative="1" as="geometry">
            <mxPoint x="500" y="390" as="sourcePoint" />
            <mxPoint x="600" y="360" as="targetPoint" />
            <Array as="points">
              <mxPoint x="680" y="390" />
            </Array>
          </mxGeometry>
        </mxCell>
        <mxCell id="h4uFp4v9oARdykIwXIdX-30" value="да" style="text;html=1;strokeColor=none;fillColor=none;align=center;verticalAlign=middle;whiteSpace=wrap;rounded=0;fontColor=#1D3557;" vertex="1" parent="WIyWlLk6GJQsqaUBKTNV-1">
          <mxGeometry x="510" y="360" width="60" height="30" as="geometry" />
        </mxCell>
        <mxCell id="h4uFp4v9oARdykIwXIdX-33" value="нет" style="text;html=1;strokeColor=none;fillColor=none;align=center;verticalAlign=middle;whiteSpace=wrap;rounded=0;fontColor=#1D3557;" vertex="1" parent="WIyWlLk6GJQsqaUBKTNV-1">
          <mxGeometry x="269" y="360" width="60" height="30" as="geometry" />
        </mxCell>
      </root>
    </mxGraphModel>
  </diagram>
</mxfile>
